<svg width="897" height="214" viewBox="0 0 897 214" fill="none" xmlns="http://www.w3.org/2000/svg">
<path d="M77.7678 127.052C67.5786 127.623 42.2825 120.415 38.1796 86.2667C36.8145 74.8865 38.7702 54.5624 67.2773 32.0605C67.2773 32.0605 25.4857 52.9722 33.3371 91.4877C39.7712 123.085 63.6551 130.194 76.4759 131.573C76.9521 129.898 77.386 128.469 77.6769 127.416L77.7678 127.052Z" fill="url(#paint0_linear)"/>
<path d="M33.3371 91.4877C25.4857 52.9723 67.2772 32.0606 67.2772 32.0606C67.2772 32.0606 39.8206 40.1829 28.4197 66.3754C20.9046 83.6454 23.0907 106.718 34.0249 117.935C44.0419 128.208 62.6149 133.178 75.444 135.924C75.7482 134.329 76.1136 132.877 76.4713 131.575C63.6551 130.194 39.7712 123.085 33.3371 91.4877Z" fill="url(#paint1_linear)"/>
<path d="M74.6879 143.201C74.714 141.111 74.9058 139.027 75.2617 136.967C60.844 136.904 45.8138 135.108 33.126 119.558C9.50047 90.5396 27.1548 53.0497 27.1548 53.0497C27.1548 53.0497 8.68972 80.7573 17.265 110.002C24.447 125.505 40.6134 146.666 74.6879 143.201Z" fill="url(#paint2_linear)"/>
<path d="M33.1488 119.566C45.8077 135.105 60.8379 136.9 75.2845 136.975C75.3433 136.621 75.4082 136.271 75.4576 135.935C62.6149 133.178 44.9268 126.888 34.9114 116.619C10.7275 91.8147 27.1608 53.0528 27.1608 53.0528C27.1608 53.0528 9.50046 90.5396 33.1488 119.566Z" fill="url(#paint3_linear)"/>
<path d="M33.1488 119.566C45.8077 135.105 60.8379 136.9 75.2845 136.975C75.3433 136.621 76.3481 132.233 76.4159 131.892C63.5883 129.15 47.6107 124.645 37.5984 114.37C13.3948 89.5514 27.1547 53.0497 27.1547 53.0497C27.1547 53.0497 9.50044 90.5396 33.1488 119.566Z" fill="url(#paint4_linear)"/>
<path d="M75.1358 148.903C75.0106 148.182 74.9129 147.452 74.8485 146.763C63.8397 149.82 43.1764 151.165 25.7809 127.208C21.9704 122.007 19.0892 116.186 17.265 110.002C14.9503 105.105 13.2083 99.9567 12.0737 94.6602C11.7672 107.913 15.2384 124.091 27.0358 136.888C36.0751 142.857 52.9782 151.11 75.1358 148.903Z" fill="url(#paint5_linear)"/>
<path d="M25.7748 127.205C43.1703 151.162 63.8351 149.821 74.8423 146.759C74.7247 145.576 74.6711 144.387 74.6817 143.198C40.6133 146.666 24.4469 125.505 17.2649 110.002C19.0876 116.184 21.9667 122.004 25.7748 127.205Z" fill="url(#paint6_linear)"/>
<path d="M25.7748 127.205C43.1703 151.162 63.8351 149.821 74.8423 146.759C74.7247 145.576 74.6711 144.387 74.6817 143.198C40.6133 146.666 24.4469 125.505 17.2649 110.002C19.0876 116.184 21.9667 122.004 25.7748 127.205Z" fill="url(#paint7_linear)"/>
<path d="M83.599 164.888C75.342 165.311 67.0755 164.264 59.1848 161.796C49.6423 160.748 43.8755 157.523 43.8755 157.523C50.0474 163.587 57.4004 167.074 64.7536 168.968C72.5493 170.153 80.4814 170.124 88.2682 168.882C86.6122 167.672 85.0512 166.336 83.599 164.888Z" fill="url(#paint8_linear)"/>
<path d="M88.282 168.878C80.4952 170.119 72.5631 170.148 64.7675 168.963C74.2232 171.414 83.6386 171.198 90.5388 170.436C89.7513 169.928 89.0006 169.408 88.282 168.878Z" fill="url(#paint9_linear)"/>
<path d="M88.282 168.878C80.4952 170.119 72.5631 170.148 64.7675 168.963C74.2232 171.414 83.6386 171.198 90.5388 170.436C89.7513 169.928 89.0006 169.408 88.282 168.878Z" fill="url(#paint10_linear)"/>
<path d="M79.7282 160.235C73.0314 161.995 66.0706 162.524 59.1848 161.796C67.0756 164.264 75.3421 165.311 83.599 164.888C82.1673 163.46 80.8715 161.903 79.7282 160.235Z" fill="url(#paint11_linear)"/>
<path d="M79.7282 160.235C79.1716 159.419 78.6675 158.599 78.2159 157.773C44.7773 161.637 19.6921 131.236 19.6921 131.236C32.0164 148.922 46.237 157.717 59.1848 161.796C67.0756 164.264 75.342 165.311 83.599 164.888C82.1673 163.46 80.8715 161.903 79.7282 160.235Z" fill="url(#paint12_linear)"/>
<path d="M43.9695 148.865C54.5686 152.694 66.71 151.597 75.3192 149.9C75.2544 149.582 75.1917 149.25 75.1312 148.905C53.0013 151.102 36.0751 142.857 27.0374 136.892C29.148 139.175 31.4464 141.276 33.9083 143.173C37.1181 145.315 40.4809 147.217 43.9695 148.865Z" fill="url(#paint13_linear)"/>
<path d="M78.2159 157.773C77.6478 156.735 77.1454 155.663 76.7116 154.562C64.2554 156.101 53.068 153.141 43.965 148.851C41.2425 147.889 38.6579 146.573 36.2774 144.939C35.4539 144.366 34.6657 143.777 33.8914 143.169C24.9483 137.214 19.6921 131.236 19.6921 131.236C19.6921 131.236 44.7773 161.637 78.2159 157.773Z" fill="url(#paint14_linear)"/>
<path d="M33.9082 143.173C34.6795 143.773 35.4677 144.362 36.2941 144.944C38.6703 146.581 41.2507 147.899 43.9695 148.865C40.4808 147.217 37.118 145.315 33.9082 143.173Z" fill="url(#paint15_linear)"/>
<path d="M33.9082 143.173C34.6795 143.773 35.4677 144.362 36.2941 144.944C38.6703 146.581 41.2507 147.899 43.9695 148.865C40.4808 147.217 37.118 145.315 33.9082 143.173Z" fill="url(#paint16_linear)"/>
<path d="M76.7116 154.562C76.1143 153.049 75.648 151.488 75.3177 149.895C75.2528 149.577 75.1901 149.246 75.1297 148.9C52.9997 151.097 36.0735 142.853 27.0358 136.888C24.4317 135.216 21.9749 133.325 19.6921 131.236C19.6921 131.236 44.7773 161.637 78.2159 157.773C77.6478 156.735 77.1454 155.663 76.7116 154.562Z" fill="url(#paint17_linear)"/>
<path d="M104.951 120.559C114.074 115.983 135.996 95.7884 122.561 64.1269C118.082 53.5766 106.271 36.9212 70.3464 31.5901C70.3464 31.5901 117.002 28.9308 129.359 66.2455C139.503 96.8544 117.077 118.538 106.642 126.115C105.918 124.907 105.435 123.458 105.193 122.25L104.951 120.559Z" fill="url(#paint18_linear)"/>
<path d="M129.359 66.2455C117.002 28.9308 70.3465 31.5901 70.3465 31.5901C70.3465 31.5901 98.2038 24.9714 121.127 42.0165C136.24 53.2563 145.826 74.3568 141.924 89.5272C138.348 103.423 117.853 119.28 108.092 128.047C106.884 126.598 106.401 125.873 106.159 125.148C116.589 117.573 139.503 96.8544 129.359 66.2455Z" fill="url(#paint19_linear)"/>
<path d="M113.406 135.294C111.957 133.845 110.266 131.912 109.299 130.704C126.933 122.25 140.245 110.29 143.512 90.4882C149.563 53.5608 115.593 29.8285 115.593 29.8285C115.593 29.8285 145.398 44.6723 152.513 74.3059C153.999 91.3273 144.686 121.342 113.406 135.294Z" fill="url(#paint20_linear)"/>
<path d="M143.496 90.5064C140.249 110.284 124.518 127.081 109.299 130.704C109.072 130.427 108.302 128.797 108.092 128.53C117.859 119.747 136.924 102.719 140.501 88.8276C149.133 55.2775 115.589 29.8343 115.589 29.8343C115.589 29.8343 149.563 53.5608 143.496 90.5064Z" fill="url(#paint21_linear)"/>
<path d="M143.496 90.5064C140.249 110.284 121.551 123.208 109.058 130.463C108.831 130.185 107.076 127.104 106.642 126.115C113.889 121.283 126.933 116.935 137.051 88.2138C145.693 54.6417 115.593 29.8286 115.593 29.8286C115.593 29.8286 149.563 53.5608 143.496 90.5064Z" fill="url(#paint22_linear)"/>
<path d="M121.564 136.293C121.106 135.786 120.419 135.026 119.961 134.518C131.032 131.692 150.524 122.905 153.689 93.4679C154.406 87.0606 154.009 80.5775 152.513 74.3059C152.084 68.9063 151.033 63.5742 149.381 58.4155C156.242 69.7578 161.283 85.5184 157.418 102.489C152.549 112.165 141.881 127.18 121.564 136.293Z" fill="url(#paint23_linear)"/>
<path d="M153.693 93.4622C150.527 122.899 131.936 132.02 120.865 134.842C120.378 133.757 119.833 132.699 119.231 131.673C150.508 117.727 153.999 91.3274 152.513 74.3059C154.009 80.5754 154.408 87.0565 153.693 93.4622Z" fill="url(#paint24_linear)"/>
<path d="M153.693 93.4622C150.527 122.899 127.134 134.888 116.063 137.71C114.855 136.743 113.165 135.052 112.681 134.569C143.958 120.623 153.999 91.3274 152.513 74.3059C154.009 80.5754 154.408 87.0565 153.693 93.4622Z" fill="url(#paint25_linear)"/>
<path d="M126.692 152.203C134.064 148.461 136.313 146.16 141.929 140.092C149.684 134.435 153.081 128.767 153.081 128.767C150.745 137.099 146.103 143.782 140.667 149.084C134.495 153.992 134.905 153.653 128.866 158.001C128.383 156.31 127.175 153.894 126.692 152.203Z" fill="url(#paint26_linear)"/>
<path d="M128.383 156.551C135.755 153.753 134.481 153.995 140.653 149.087C133.671 155.919 132.248 155.827 128.866 158.001L128.383 156.551Z" fill="url(#paint27_linear)"/>
<path d="M128.624 156.313C132.489 154.38 134.964 153.756 141.136 148.849C134.154 155.68 133.456 154.86 128.866 158.001C128.866 158.001 128.866 157.038 128.624 156.313Z" fill="url(#paint28_linear)"/>
<path d="M124.759 148.58C131.444 146.773 136.318 144.15 141.928 140.092C136.313 146.16 134.306 149.428 126.933 153.169C127.465 151.219 125.967 150.029 124.759 148.58Z" fill="url(#paint29_linear)"/>
<path d="M124.76 148.58C124.276 147.614 124.518 148.097 123.793 146.889C150.123 128.772 160.975 93.9316 160.975 93.9316C159.087 115.406 151.129 130.111 141.929 140.092C136.313 146.16 134.306 149.428 126.934 153.169C126.934 153.169 125.726 150.271 124.76 148.58Z" fill="url(#paint30_linear)"/>
<path d="M148.691 121.305C141.403 129.9 127.274 137.554 118.962 140.367C118.962 140.367 116.546 138.193 115.339 136.985C130.798 133.603 152.549 112.165 157.419 102.493C156.724 105.523 155.776 108.489 154.585 111.361C152.867 114.815 150.897 118.139 148.691 121.305Z" fill="url(#paint31_linear)"/>
<path d="M126.211 144.754C126.019 143.777 125.357 142.534 124.683 141.532C136.253 136.667 142.927 129.541 148.688 121.29C150.571 119.101 152.158 116.674 153.409 114.071C153.838 113.165 154.229 112.262 154.598 111.348C159.391 101.733 160.975 93.9316 160.975 93.9316C160.975 93.9316 157.138 131.465 126.211 144.754Z" fill="url(#paint32_linear)"/>
<path d="M154.585 111.361C154.215 112.265 153.824 113.168 153.397 114.084C152.15 116.686 150.568 119.114 148.691 121.305C150.897 118.139 152.867 114.815 154.585 111.361Z" fill="url(#paint33_linear)"/>
<path d="M154.585 111.361C154.215 112.265 153.824 113.168 153.397 114.084C152.15 116.686 150.568 119.114 148.691 121.305C150.897 118.139 152.867 114.815 154.585 111.361Z" fill="url(#paint34_linear)"/>
<path d="M121.378 143.265C120.411 142.058 118.72 140.125 118.72 140.125C118.72 140.125 126.679 136.514 126.45 136.26C143.118 125.873 152.548 112.16 157.418 102.489C158.845 99.7426 160.035 96.8799 160.975 93.9316C160.975 93.9316 154.72 133.6 123.793 146.889C123.793 146.889 121.816 143.814 121.378 143.265Z" fill="url(#paint35_linear)"/>
<path d="M30.2988 160.834C30.3045 160.021 28.3297 157.192 28.3297 157.192C35.1001 159.434 36.8822 166.404 36.8822 166.404C33.363 163.351 27.5318 163.547 27.5318 163.547C25.2428 163.42 20.3044 164.526 20.3044 164.526C26.0895 160.443 30.2988 160.834 30.2988 160.834Z" fill="url(#paint36_linear)"/>
<path d="M43.022 167.097C42.1825 159.941 34.2363 157.228 34.2363 157.228C34.2363 157.228 50.7513 158.075 52.2611 176.23C53.771 194.385 67.38 198.753 67.38 198.753C46.7666 196.078 43.8581 174.256 43.022 167.097Z" fill="url(#paint37_linear)"/>
<path d="M11.7088 171.982C11.7088 171.982 32.4628 156.776 40.5984 176.3C48.734 195.823 54.3253 197.633 65.2235 200.656C65.2235 200.656 42.186 204.249 34.0362 186.984C25.8865 169.719 11.7088 171.982 11.7088 171.982Z" fill="url(#paint38_linear)"/>
<path d="M109.275 188.588C103.421 166.676 58.1493 171.108 85.7745 106.127C85.7745 106.127 73.2033 101.452 70.6498 88.1895C70.6498 88.1895 74.1697 94.6671 90.968 91.9674C114.484 88.1895 125.696 103.404 125.696 112.077C125.696 112.077 112.496 105.781 105.425 115.54C100.09 122.884 109.903 134.8 116.904 141.514C136.829 160.616 139.736 217.908 96.7384 212.593C83.4685 210.277 68.7173 202.689 68.7173 202.689C68.7173 202.689 115.246 210.981 109.275 188.588Z" fill="url(#paint39_linear)"/>
<path d="M65.577 200.032C65.577 200.032 82.8598 208.103 96.2553 209.936C101.811 210.697 112.635 210.298 116.681 206.14C123.31 200.999 123.049 195.373 121.228 188.588C115.356 166.676 69.9483 171.108 97.6535 106.127C97.6535 106.127 87.9035 102.506 83.8127 92.6207C73.1326 92.723 70.6498 88.1895 70.6498 88.1895C73.2036 101.452 85.8226 106.127 85.8226 106.127C58.1175 171.115 103.526 166.676 109.398 188.588C115.388 210.981 65.577 200.032 65.577 200.032Z" fill="url(#paint40_linear)"/>
<path d="M105.953 95.4426C105.953 95.4426 104.083 95.1193 103.039 97.0755C101.658 99.662 105.3 109.086 114.018 101.85C114.018 101.85 114.303 101.585 113.842 99.6643L113.214 98.5333L106.836 95.3168L105.953 95.4426Z" fill="#DD3300"/>
<path d="M113.275 98.6368C113.275 98.6368 113.689 101.133 111.054 102.824C108.42 104.516 104.353 103.004 103.995 99.9183C103.662 97.1261 104.898 96.322 105.929 96.0504C106.612 95.867 107.746 95.7823 107.746 95.7823L113.037 98.4475L113.275 98.6368Z" fill="white"/>
<path d="M109.17 101.121C110.433 101.121 111.457 100.097 111.457 98.8344C111.457 97.5715 110.433 96.5477 109.17 96.5477C107.907 96.5477 106.883 97.5715 106.883 98.8344C106.883 100.097 107.907 101.121 109.17 101.121Z" fill="black"/>
<path d="M109.17 101.356C108.671 101.356 108.184 101.208 107.769 100.931C107.354 100.654 107.031 100.26 106.84 99.7993C106.649 99.3385 106.599 98.8315 106.697 98.3423C106.794 97.8531 107.034 97.4038 107.387 97.0511C107.739 96.6984 108.189 96.4583 108.678 96.361C109.167 96.2637 109.674 96.3136 110.135 96.5045C110.596 96.6953 110.99 97.0185 111.267 97.4332C111.544 97.8479 111.692 98.3355 111.692 98.8343C111.691 99.5029 111.425 100.144 110.952 100.617C110.48 101.09 109.839 101.355 109.17 101.356V101.356Z" stroke="#DD3300" stroke-width="0.483122" stroke-miterlimit="10"/>
<path d="M109.17 101.356C108.671 101.356 108.184 101.208 107.769 100.931C107.354 100.654 107.031 100.26 106.84 99.7993C106.649 99.3385 106.599 98.8315 106.697 98.3423C106.794 97.8531 107.034 97.4038 107.387 97.0511C107.739 96.6984 108.189 96.4583 108.678 96.361C109.167 96.2637 109.674 96.3136 110.135 96.5045C110.596 96.6953 110.99 97.0185 111.267 97.4332C111.544 97.8479 111.692 98.3355 111.692 98.8343C111.691 99.5029 111.425 100.144 110.952 100.617C110.48 101.09 109.839 101.355 109.17 101.356V101.356Z" stroke="#DD3300" stroke-width="0.483122" stroke-miterlimit="10"/>
<path d="M108.506 98.4322C108.867 98.4322 109.159 98.1395 109.159 97.7785C109.159 97.4175 108.867 97.1249 108.506 97.1249C108.145 97.1249 107.852 97.4175 107.852 97.7785C107.852 98.1395 108.145 98.4322 108.506 98.4322Z" fill="white"/>
<path d="M107.912 99.2012C108.073 99.2012 108.203 99.0706 108.203 98.9096C108.203 98.7486 108.073 98.618 107.912 98.618C107.751 98.618 107.62 98.7486 107.62 98.9096C107.62 99.0706 107.751 99.2012 107.912 99.2012Z" fill="white"/>
<path d="M107.963 99.8172C108.05 99.8172 108.12 99.744 108.12 99.6538C108.12 99.5635 108.05 99.4904 107.963 99.4904C107.876 99.4904 107.805 99.5635 107.805 99.6538C107.805 99.744 107.876 99.8172 107.963 99.8172Z" fill="white"/>
<path d="M102.536 94.7642C102.536 94.7642 105.778 94.4374 108.691 96.7993C111.605 99.1612 112.913 99.2611 113.492 99.1071C113.492 99.1071 113.492 99.8607 113.894 100.165C114.296 100.47 117.21 101.547 114.095 98.4017C110.979 95.2568 106.079 93.658 102.536 94.7642Z" fill="#DD3300"/>
<path d="M115.49 100.256C115.584 99.6683 115.476 99.0664 115.183 98.5486C115.046 98.2878 114.885 98.0399 114.703 97.808C114.523 97.5728 114.319 97.3577 114.115 97.1414C113.714 96.7068 113.276 96.3072 112.807 95.9469C112.338 95.5931 111.829 95.2955 111.291 95.0605C111.023 94.9423 110.748 94.8418 110.468 94.7595C110.187 94.6808 109.901 94.6177 109.613 94.5702C109.036 94.4703 108.448 94.4197 107.857 94.3692C107.265 94.3186 106.667 94.2928 106.067 94.1905C105.468 94.0882 104.868 93.8989 104.386 93.5333L104.405 93.5039C104.934 93.7633 105.511 93.9137 106.099 93.9459C106.687 93.9942 107.275 93.9894 107.88 94.0188C108.484 94.0427 109.085 94.113 109.678 94.2293C109.976 94.2918 110.271 94.3703 110.561 94.4644C110.85 94.5603 111.133 94.675 111.407 94.8077C111.957 95.066 112.475 95.388 112.95 95.767C113.416 96.1485 113.848 96.5689 114.243 97.0238C114.439 97.2507 114.634 97.4788 114.811 97.7292C114.988 97.9741 115.143 98.2346 115.274 98.5075C115.535 99.0494 115.662 99.6831 115.523 100.271L115.49 100.256Z" fill="#DD3300"/>
<path d="M277.986 56.2406V126.038H269.81L227.931 73.9892V126.038H217.96V56.2406H226.137L268.015 108.29V56.2406H277.986ZM343.349 108.589H306.257L298.579 126.038H288.309L319.917 56.2406H329.789L361.497 126.038H351.027L343.349 108.589ZM339.859 100.612L324.803 66.4112L309.747 100.612H339.859ZM431.935 56.2406V126.038H423.758L381.88 73.9892V126.038H371.909V56.2406H380.085L421.964 108.29V56.2406H431.935ZM484.036 126.836C477.056 126.836 470.741 125.307 465.091 122.249C459.507 119.125 455.12 114.871 451.929 109.486C448.738 104.035 447.143 97.9198 447.143 91.1395C447.143 84.3591 448.738 78.2768 451.929 72.8924C455.12 67.4415 459.54 63.1872 465.191 60.1294C470.841 57.0051 477.156 55.4429 484.136 55.4429C489.587 55.4429 494.572 56.3736 499.092 58.2349C503.613 60.0297 507.468 62.7218 510.659 66.3114L504.178 72.5932C498.926 67.0759 492.379 64.3172 484.535 64.3172C479.35 64.3172 474.663 65.4805 470.475 67.8071C466.287 70.1337 462.997 73.3577 460.604 77.4791C458.277 81.534 457.114 86.0875 457.114 91.1395C457.114 96.1915 458.277 100.778 460.604 104.9C462.997 108.955 466.287 112.145 470.475 114.472C474.663 116.798 479.35 117.962 484.535 117.962C492.312 117.962 498.86 115.17 504.178 109.586L510.659 115.868C507.468 119.457 503.579 122.183 498.993 124.044C494.472 125.905 489.487 126.836 484.036 126.836ZM550.437 101.908V126.038H540.566V101.709L512.846 56.2406H523.515L545.851 93.034L568.286 56.2406H578.157L550.437 101.908ZM667.2 117.363V126.038H608.87V119.258L652.742 64.9155H609.568V56.2406H665.904V63.021L622.231 117.363H667.2ZM680.584 56.2406H690.555V126.038H680.584V56.2406ZM711.452 56.2406H721.423V126.038H711.452V56.2406ZM802.345 56.2406V126.038H794.169L752.291 73.9892V126.038H742.319V56.2406H750.496L792.374 108.29V56.2406H802.345ZM854.746 126.836C847.7 126.836 841.351 125.307 835.701 122.249C830.051 119.125 825.597 114.837 822.34 109.387C819.149 103.936 817.554 97.8534 817.554 91.1395C817.554 84.4256 819.149 78.3432 822.34 72.8924C825.597 67.4415 830.051 63.1872 835.701 60.1294C841.351 57.0051 847.7 55.4429 854.746 55.4429C861.726 55.4429 868.041 57.0051 873.691 60.1294C879.341 63.1872 883.762 67.4415 886.953 72.8924C890.143 78.2768 891.739 84.3591 891.739 91.1395C891.739 97.9198 890.143 104.035 886.953 109.486C883.762 114.871 879.341 119.125 873.691 122.249C868.041 125.307 861.726 126.836 854.746 126.836ZM854.746 117.962C859.864 117.962 864.451 116.798 868.506 114.472C872.627 112.145 875.851 108.955 878.178 104.9C880.571 100.778 881.768 96.1915 881.768 91.1395C881.768 86.0875 880.571 81.534 878.178 77.4791C875.851 73.3577 872.627 70.1337 868.506 67.8071C864.451 65.4805 859.864 64.3172 854.746 64.3172C849.627 64.3172 844.974 65.4805 840.786 67.8071C836.665 70.1337 833.408 73.3577 831.015 77.4791C828.688 81.534 827.525 86.0875 827.525 91.1395C827.525 96.1915 828.688 100.778 831.015 104.9C833.408 108.955 836.665 112.145 840.786 114.472C844.974 116.798 849.627 117.962 854.746 117.962ZM227.884 187.437C225.258 187.437 222.715 187.038 220.256 186.241C217.829 185.41 215.918 184.346 214.522 183.05L216.367 179.161C217.696 180.358 219.392 181.338 221.452 182.103C223.546 182.834 225.69 183.199 227.884 183.199C230.775 183.199 232.936 182.718 234.365 181.754C235.794 180.757 236.509 179.444 236.509 177.815C236.509 176.619 236.11 175.655 235.312 174.923C234.548 174.159 233.584 173.577 232.42 173.179C231.29 172.78 229.678 172.331 227.584 171.832C224.959 171.201 222.832 170.569 221.203 169.938C219.608 169.306 218.228 168.343 217.065 167.046C215.935 165.717 215.37 163.939 215.37 161.712C215.37 159.85 215.852 158.172 216.816 156.676C217.813 155.181 219.308 153.984 221.303 153.087C223.297 152.189 225.773 151.741 228.731 151.741C230.792 151.741 232.819 152.007 234.814 152.538C236.808 153.07 238.519 153.835 239.949 154.832L238.303 158.82C236.841 157.889 235.279 157.192 233.617 156.726C231.955 156.228 230.327 155.978 228.731 155.978C225.906 155.978 223.779 156.494 222.35 157.524C220.954 158.554 220.256 159.884 220.256 161.512C220.256 162.709 220.655 163.689 221.452 164.454C222.25 165.185 223.23 165.767 224.394 166.199C225.59 166.598 227.202 167.03 229.23 167.495C231.855 168.126 233.966 168.758 235.561 169.389C237.157 170.021 238.519 170.985 239.649 172.281C240.813 173.577 241.394 175.322 241.394 177.516C241.394 179.344 240.896 181.022 239.899 182.551C238.902 184.047 237.389 185.244 235.362 186.141C233.334 187.005 230.842 187.437 227.884 187.437ZM265.429 187.437C261.906 187.437 258.732 186.673 255.907 185.144C253.082 183.582 250.855 181.438 249.226 178.712C247.631 175.987 246.833 172.946 246.833 169.589C246.833 166.232 247.631 163.191 249.226 160.465C250.855 157.74 253.082 155.613 255.907 154.084C258.732 152.522 261.906 151.741 265.429 151.741C268.919 151.741 272.077 152.522 274.902 154.084C277.727 155.613 279.937 157.74 281.533 160.465C283.128 163.158 283.926 166.199 283.926 169.589C283.926 172.979 283.128 176.037 281.533 178.762C279.937 181.455 277.727 183.582 274.902 185.144C272.077 186.673 268.919 187.437 265.429 187.437ZM265.429 183C267.989 183 270.282 182.418 272.31 181.255C274.37 180.092 275.982 178.496 277.145 176.469C278.342 174.408 278.94 172.115 278.94 169.589C278.94 167.063 278.342 164.786 277.145 162.759C275.982 160.698 274.37 159.086 272.31 157.923C270.282 156.759 267.989 156.178 265.429 156.178C262.87 156.178 260.544 156.759 258.45 157.923C256.389 159.086 254.76 160.698 253.564 162.759C252.401 164.786 251.819 167.063 251.819 169.589C251.819 172.115 252.401 174.408 253.564 176.469C254.76 178.496 256.389 180.092 258.45 181.255C260.544 182.418 262.87 183 265.429 183ZM308.148 187.437C304.658 187.437 301.5 186.673 298.675 185.144C295.883 183.582 293.69 181.455 292.094 178.762C290.499 176.037 289.701 172.979 289.701 169.589C289.701 166.199 290.499 163.158 292.094 160.465C293.69 157.74 295.9 155.613 298.725 154.084C301.55 152.522 304.708 151.741 308.198 151.741C310.923 151.741 313.416 152.206 315.676 153.137C317.936 154.034 319.864 155.38 321.459 157.175L318.219 160.316C315.593 157.557 312.319 156.178 308.397 156.178C305.805 156.178 303.461 156.759 301.367 157.923C299.274 159.086 297.628 160.698 296.432 162.759C295.268 164.786 294.687 167.063 294.687 169.589C294.687 172.115 295.268 174.408 296.432 176.469C297.628 178.496 299.274 180.092 301.367 181.255C303.461 182.418 305.805 183 308.397 183C312.286 183 315.56 181.604 318.219 178.812L321.459 181.953C319.864 183.748 317.92 185.111 315.626 186.041C313.366 186.972 310.873 187.437 308.148 187.437ZM329.569 152.139H334.554V187.038H329.569V152.139ZM368.235 178.314H349.689L345.85 187.038H340.715L356.519 152.139H361.455L377.309 187.038H372.074L368.235 178.314ZM366.49 174.325L358.962 157.225L351.434 174.325H366.49ZM383.512 152.139H388.497V182.701H407.393V187.038H383.512V152.139ZM460.853 187.038L460.803 161.612L448.19 182.801H445.896L433.283 161.762V187.038H428.497V152.139H432.585L447.143 176.668L461.501 152.139H465.589L465.639 187.038H460.853ZM502.436 182.701V187.038H477.11V152.139H501.738V156.477H482.095V167.196H499.594V171.434H482.095V182.701H502.436ZM511.506 152.139H526.213C529.903 152.139 533.177 152.871 536.035 154.333C538.893 155.796 541.104 157.856 542.666 160.515C544.261 163.141 545.059 166.165 545.059 169.589C545.059 173.012 544.261 176.054 542.666 178.712C541.104 181.338 538.893 183.382 536.035 184.845C533.177 186.307 529.903 187.038 526.213 187.038H511.506V152.139ZM525.914 182.701C528.739 182.701 531.216 182.152 533.343 181.056C535.503 179.959 537.165 178.43 538.328 176.469C539.492 174.475 540.073 172.181 540.073 169.589C540.073 166.996 539.492 164.72 538.328 162.759C537.165 160.764 535.503 159.219 533.343 158.122C531.216 157.025 528.739 156.477 525.914 156.477H516.492V182.701H525.914ZM553.692 152.139H558.678V187.038H553.692V152.139ZM592.359 178.314H573.813L569.974 187.038H564.839L580.643 152.139H585.578L601.433 187.038H596.198L592.359 178.314ZM590.614 174.325L583.086 157.225L575.558 174.325H590.614ZM654.378 187.038L654.328 161.612L641.715 182.801H639.421L626.808 161.762V187.038H622.022V152.139H626.11L640.668 176.668L655.026 152.139H659.114L659.164 187.038H654.378ZM692.87 178.314H674.324L670.485 187.038H665.35L681.154 152.139H686.09L701.944 187.038H696.709L692.87 178.314ZM691.125 174.325L683.597 157.225L676.069 174.325H691.125ZM738.16 152.139V187.038H734.072L713.133 161.014V187.038H708.147V152.139H712.235L733.174 178.164V152.139H738.16ZM771.839 178.314H753.292L749.453 187.038H744.318L760.123 152.139H765.058L780.912 187.038H775.677L771.839 178.314ZM770.094 174.325L762.565 157.225L755.037 174.325H770.094ZM810.808 169.389H815.595V183C813.866 184.429 811.855 185.526 809.562 186.29C807.269 187.055 804.876 187.437 802.383 187.437C798.86 187.437 795.686 186.673 792.86 185.144C790.035 183.582 787.808 181.455 786.18 178.762C784.584 176.037 783.787 172.979 783.787 169.589C783.787 166.199 784.584 163.141 786.18 160.415C787.808 157.69 790.035 155.563 792.86 154.034C795.719 152.505 798.926 151.741 802.483 151.741C805.274 151.741 807.8 152.206 810.061 153.137C812.354 154.034 814.298 155.363 815.894 157.125L812.803 160.216C810.011 157.524 806.637 156.178 802.682 156.178C800.023 156.178 797.63 156.759 795.503 157.923C793.409 159.053 791.764 160.648 790.567 162.709C789.371 164.736 788.772 167.03 788.772 169.589C788.772 172.115 789.371 174.408 790.567 176.469C791.764 178.496 793.409 180.092 795.503 181.255C797.63 182.418 800.006 183 802.632 183C805.756 183 808.482 182.252 810.808 180.757V169.389ZM851.464 182.701V187.038H826.137V152.139H850.766V156.477H831.123V167.196H848.622V171.434H831.123V182.701H851.464ZM883.866 187.038L876.338 176.319C875.407 176.386 874.676 176.419 874.144 176.419H865.519V187.038H860.534V152.139H874.144C878.664 152.139 882.221 153.22 884.813 155.38C887.406 157.54 888.702 160.515 888.702 164.304C888.702 166.996 888.037 169.29 886.708 171.184C885.378 173.079 883.484 174.458 881.024 175.322L889.3 187.038H883.866ZM873.995 172.181C877.152 172.181 879.562 171.5 881.224 170.137C882.885 168.775 883.716 166.83 883.716 164.304C883.716 161.778 882.885 159.85 881.224 158.521C879.562 157.158 877.152 156.477 873.995 156.477H865.519V172.181H873.995Z" fill="black"/>
<line x1="246.624" y1="136.98" x2="855.582" y2="136.98" stroke="black" stroke-opacity="0.5" stroke-width="2.08546"/>
<defs>
<linearGradient id="paint0_linear" x1="9225.64" y1="17143" x2="12477.6" y2="-86.491" gradientUnits="userSpaceOnUse">
<stop stop-color="#FFEA57"/>
<stop offset="1" stop-color="#F7931E"/>
</linearGradient>
<linearGradient id="paint1_linear" x1="26282.6" y1="4878.29" x2="12704.6" y2="10970.1" gradientUnits="userSpaceOnUse">
<stop stop-color="#FFEA57"/>
<stop offset="1" stop-color="#DD3300"/>
</linearGradient>
<linearGradient id="paint2_linear" x1="17490.7" y1="9750.82" x2="13373.6" y2="11598" gradientUnits="userSpaceOnUse">
<stop stop-color="#FFEA57"/>
<stop offset="1" stop-color="#DD3300"/>
</linearGradient>
<linearGradient id="paint3_linear" x1="15016.5" y1="9270.72" x2="11599" y2="10804" gradientUnits="userSpaceOnUse">
<stop stop-color="#FFEA57"/>
<stop offset="1" stop-color="#CC2037"/>
</linearGradient>
<linearGradient id="paint4_linear" x1="16836.4" y1="8455" x2="11308" y2="10935.4" gradientUnits="userSpaceOnUse">
<stop stop-color="#CC2037"/>
<stop offset="1" stop-color="#FFEA57"/>
</linearGradient>
<linearGradient id="paint5_linear" x1="17045.9" y1="7833.24" x2="12280.6" y2="9971.2" gradientUnits="userSpaceOnUse">
<stop stop-color="#FFEA57"/>
<stop offset="1" stop-color="#DD3300"/>
</linearGradient>
<linearGradient id="paint6_linear" x1="14959.8" y1="5644.48" x2="11056.9" y2="7395.54" gradientUnits="userSpaceOnUse">
<stop stop-color="#FFEA57"/>
<stop offset="1" stop-color="#CC2037"/>
</linearGradient>
<linearGradient id="paint7_linear" x1="15155.2" y1="5556.8" x2="10691.9" y2="7559.27" gradientUnits="userSpaceOnUse">
<stop stop-color="#CC2037"/>
<stop offset="1" stop-color="#FFEA57"/>
</linearGradient>
<linearGradient id="paint8_linear" x1="12497.1" y1="2438.49" x2="9001.2" y2="4006.95" gradientUnits="userSpaceOnUse">
<stop stop-color="#FFEA57"/>
<stop offset="1" stop-color="#DD3300"/>
</linearGradient>
<linearGradient id="paint9_linear" x1="7113.25" y1="211.59" x2="4708.02" y2="1290.7" gradientUnits="userSpaceOnUse">
<stop stop-color="#FFEA57"/>
<stop offset="1" stop-color="#CC2037"/>
</linearGradient>
<linearGradient id="paint10_linear" x1="7107.99" y1="213.946" x2="4937.18" y2="1187.88" gradientUnits="userSpaceOnUse">
<stop stop-color="#FFEA57"/>
<stop offset="1" stop-color="#DD3300"/>
</linearGradient>
<linearGradient id="paint11_linear" x1="6737.26" y1="565.211" x2="4727.57" y2="1466.86" gradientUnits="userSpaceOnUse">
<stop stop-color="#FFEA57"/>
<stop offset="1" stop-color="#CC2037"/>
</linearGradient>
<linearGradient id="paint12_linear" x1="-42.8404" y1="12003.5" x2="14173.3" y2="7432.83" gradientUnits="userSpaceOnUse">
<stop stop-color="#FFEA57"/>
<stop offset="1" stop-color="#CC2037"/>
</linearGradient>
<linearGradient id="paint13_linear" x1="12737.8" y1="1712.7" x2="8515.95" y2="3606.85" gradientUnits="userSpaceOnUse">
<stop stop-color="#FFEA57"/>
<stop offset="1" stop-color="#CC2037"/>
</linearGradient>
<linearGradient id="paint14_linear" x1="16079.2" y1="4518.89" x2="10751.8" y2="6909.05" gradientUnits="userSpaceOnUse">
<stop stop-color="#FFEA57"/>
<stop offset="1" stop-color="#CC2037"/>
</linearGradient>
<linearGradient id="paint15_linear" x1="2652.78" y1="1183.56" x2="1867.11" y2="1536.05" gradientUnits="userSpaceOnUse">
<stop stop-color="#FFEA57"/>
<stop offset="1" stop-color="#CC2037"/>
</linearGradient>
<linearGradient id="paint16_linear" x1="2721.57" y1="1152.69" x2="1844.39" y2="1546.24" gradientUnits="userSpaceOnUse">
<stop stop-color="#FFEA57"/>
<stop offset="1" stop-color="#CC2037"/>
</linearGradient>
<linearGradient id="paint17_linear" x1="-26785.5" y1="18271.8" x2="12541.6" y2="5627.68" gradientUnits="userSpaceOnUse">
<stop stop-color="#FFEA57"/>
<stop offset="1" stop-color="#F7931E"/>
</linearGradient>
<linearGradient id="paint18_linear" x1="641.855" y1="19430.9" x2="-10753.1" y2="6104.79" gradientUnits="userSpaceOnUse">
<stop stop-color="#FFEA57"/>
<stop offset="1" stop-color="#F15A24"/>
</linearGradient>
<linearGradient id="paint19_linear" x1="-20256.5" y1="17281.2" x2="-5447.7" y2="15808" gradientUnits="userSpaceOnUse">
<stop stop-color="#FFEA57"/>
<stop offset="1" stop-color="#DD3300"/>
</linearGradient>
<linearGradient id="paint20_linear" x1="-10205.8" y1="17132.2" x2="-5715.45" y2="16685.5" gradientUnits="userSpaceOnUse">
<stop stop-color="#FFEA57"/>
<stop offset="1" stop-color="#DD3300"/>
</linearGradient>
<linearGradient id="paint21_linear" x1="-8298.63" y1="15484.5" x2="-4571.33" y2="15113.7" gradientUnits="userSpaceOnUse">
<stop stop-color="#FFEA57"/>
<stop offset="1" stop-color="#FFAC32"/>
</linearGradient>
<linearGradient id="paint22_linear" x1="-10283.2" y1="15682.7" x2="-4253.53" y2="15082.8" gradientUnits="userSpaceOnUse">
<stop stop-color="#CC2037"/>
<stop offset="1" stop-color="#FFEA57"/>
</linearGradient>
<linearGradient id="paint23_linear" x1="-10774.3" y1="15247.6" x2="-5577" y2="14730.6" gradientUnits="userSpaceOnUse">
<stop stop-color="#FFEA57"/>
<stop offset="1" stop-color="#DD3300"/>
</linearGradient>
<linearGradient id="paint24_linear" x1="-10054.1" y1="12311" x2="-5797.32" y2="11887.5" gradientUnits="userSpaceOnUse">
<stop stop-color="#FFEA57"/>
<stop offset="1" stop-color="#DD3300"/>
</linearGradient>
<linearGradient id="paint25_linear" x1="-10267.2" y1="12332.2" x2="-5399.31" y2="11847.9" gradientUnits="userSpaceOnUse">
<stop stop-color="#DD3300"/>
<stop offset="1" stop-color="#FFEA57"/>
</linearGradient>
<linearGradient id="paint26_linear" x1="-9513.48" y1="8304.61" x2="-5700.63" y2="7925.3" gradientUnits="userSpaceOnUse">
<stop stop-color="#FFEA57"/>
<stop offset="1" stop-color="#DD3300"/>
</linearGradient>
<linearGradient id="paint27_linear" x1="-5951.82" y1="3693.75" x2="-3328.56" y2="3432.77" gradientUnits="userSpaceOnUse">
<stop stop-color="#FFEA57"/>
<stop offset="1" stop-color="#DD3300"/>
</linearGradient>
<linearGradient id="paint28_linear" x1="-5946.09" y1="3693.17" x2="-3578.5" y2="3457.64" gradientUnits="userSpaceOnUse">
<stop stop-color="#FFEA57"/>
<stop offset="1" stop-color="#DD3300"/>
</linearGradient>
<linearGradient id="paint29_linear" x1="-5449.72" y1="3813.36" x2="-3257.85" y2="3595.3" gradientUnits="userSpaceOnUse">
<stop stop-color="#FFEA57"/>
<stop offset="1" stop-color="#CC2037"/>
</linearGradient>
<linearGradient id="paint30_linear" x1="6123.47" y1="10360.6" x2="-8481.93" y2="13470.7" gradientUnits="userSpaceOnUse">
<stop stop-color="#FFEA57"/>
<stop offset="1" stop-color="#CC2037"/>
</linearGradient>
<linearGradient id="paint31_linear" x1="-10083.4" y1="7794.85" x2="-5478.84" y2="7336.77" gradientUnits="userSpaceOnUse">
<stop stop-color="#FFEA57"/>
<stop offset="1" stop-color="#DD3300"/>
</linearGradient>
<linearGradient id="paint32_linear" x1="-11585.2" y1="11891.7" x2="-5774.83" y2="11313.7" gradientUnits="userSpaceOnUse">
<stop stop-color="#FFEA57"/>
<stop offset="1" stop-color="#DD3300"/>
</linearGradient>
<linearGradient id="paint33_linear" x1="-1599.21" y1="2317.05" x2="-742.326" y2="2231.8" gradientUnits="userSpaceOnUse">
<stop stop-color="#FFEA57"/>
<stop offset="1" stop-color="#CC2037"/>
</linearGradient>
<linearGradient id="paint34_linear" x1="-1674.24" y1="2324.51" x2="-717.548" y2="2229.34" gradientUnits="userSpaceOnUse">
<stop stop-color="#FFEA57"/>
<stop offset="1" stop-color="#CC2037"/>
</linearGradient>
<linearGradient id="paint35_linear" x1="32438.8" y1="2489.05" x2="-7964.92" y2="11093" gradientUnits="userSpaceOnUse">
<stop stop-color="#FFEA57"/>
<stop offset="1" stop-color="#F7931E"/>
</linearGradient>
<linearGradient id="paint36_linear" x1="-4714.94" y1="-1898.65" x2="-5451.84" y2="-2105.47" gradientUnits="userSpaceOnUse">
<stop offset="0.36" stop-color="#F7931E"/>
<stop offset="0.63" stop-color="#F15A24"/>
<stop offset="1" stop-color="#ED1C24"/>
</linearGradient>
<linearGradient id="paint37_linear" x1="-11338.5" y1="-9109.34" x2="-11468.3" y2="-14087.5" gradientUnits="userSpaceOnUse">
<stop offset="0.36" stop-color="#F7931E"/>
<stop offset="0.63" stop-color="#F15A24"/>
<stop offset="1" stop-color="#DD3300"/>
</linearGradient>
<linearGradient id="paint38_linear" x1="-12252.4" y1="-8313.76" x2="-14477.6" y2="-14760.7" gradientUnits="userSpaceOnUse">
<stop stop-color="#FFB800" stop-opacity="0.68"/>
<stop offset="0.145833" stop-color="#FCD50C"/>
<stop offset="0.348958" stop-color="#F9B415"/>
<stop offset="0.5" stop-color="#F7931E"/>
<stop offset="1" stop-color="#DD3300"/>
</linearGradient>
<linearGradient id="paint39_linear" x1="100.357" y1="223.464" x2="100.357" y2="88.1895" gradientUnits="userSpaceOnUse">
<stop stop-color="#FFAC32"/>
<stop offset="1" stop-color="#FFDC29"/>
</linearGradient>
<linearGradient id="paint40_linear" x1="13970.3" y1="49257.7" x2="-5907.69" y2="13120.2" gradientUnits="userSpaceOnUse">
<stop stop-color="#FFFF00"/>
<stop offset="0.1" stop-color="#FFFA01"/>
<stop offset="0.22" stop-color="#FEEC05"/>
<stop offset="0.34" stop-color="#FCD50C"/>
<stop offset="0.47" stop-color="#F9B415"/>
<stop offset="0.58" stop-color="#F7931E"/>
<stop offset="1" stop-color="#F03D07"/>
</linearGradient>
</defs>
</svg>
