<svg xmlns="http://www.w3.org/2000/svg" viewBox="0 0 188.62 221.81"><defs><style>.cls-1{fill:#e65100;}.cls-2{fill:#ff9800;}</style></defs><title>image-icon</title><g id="Livello_2" data-name="Livello 2"><g id="layer"><path class="cls-1" d="M40.76,9.1c-15.1,5.37-38,29.8-36.27,65.56,1.87,38.82,20.3,36.77,16.6,66.29-1.54,12.3-5.83,18.2-14.26,29.91-11.25,15.62-9.11,42.37,10.22,51,0,0-25.54-33.43,14.27-50.33,31.38-13.32,72.5,2.63,65.88-57.16-5.62-50.79-33.66-34-33.66-34L36.84,28.25Z"/><path class="cls-2" d="M33.15,28.44C28.31,34.84,17.21,58,20.33,69s4.41,7.48.52,14.66S10.12,97.4,15.38,100.12s8.08,3.65,6,6.13-2.48,3.69,1.28,4.7,4,.33,4,.33c-2.61.9-6.32,3.34-3.69,5.79,4,3.71,3.22,3,2.75,6.23s.12,6.92,5.34,7.56,21.92-7.17,26.78-5c4.66,2.1,6.48,8.49.39,17s-18.83,14.55-24.8,20.86c0,0,62.4-3.27,65.07-27.15s3.7-49.86,2.06-52.66S33.15,28.44,33.15,28.44Z"/><path class="cls-1" d="M28.68,32.25C32.31,51.35,48.78,53.89,69,77.36c10.13,11.73,15.15,29.28,9,51.39-4.72,17-20.65,27-39.74,31.75C.86,169.9-7,209.61,17,221.81a27.56,27.56,0,0,1-6.39-13.15c-1.88-12.19,4-29,38.93-31.44,21.71-1.54,55.35-13.51,61.89-43,10.17-46-19.2-64-31.1-74.66-15.55-14-45.75-28.42-36-52.7C44.34,6.84,25.71,16.57,28.68,32.25Z"/><path class="cls-2" d="M44.34,6.84a15.13,15.13,0,0,0,2.69,10,30.92,30.92,0,0,0,7,7.27,61.65,61.65,0,0,0,8.74,5.48c3.19,1.62,6.42,2.94,9.78,4.25,13.25,5.2,28,8.63,42.25,18a69.76,69.76,0,0,1,18.57,18,84.74,84.74,0,0,1,11.17,22.85,107.05,107.05,0,0,1,3,11.86l.29,1.48.26,1.55c.17,1,.36,2.49.44,3.53.22,2.27.32,4.55.31,6.81a68.67,68.67,0,0,1-5.47,26.16c-6.93,16.44-20,29-34.22,37.09s-30,12.21-45.34,14q-5.77.65-11.52.87c-4,.12-7.26.14-10.71.55a44.36,44.36,0,0,0-9.7,2.08c-3,1.06-5.56,2.6-7,4.68s-2,4.9-1.39,8.06a7.1,7.1,0,0,0,4.93,6.07,9.3,9.3,0,0,0,8.86-1.94,6.53,6.53,0,0,0,2.07-4.38A10,10,0,0,0,38.08,206a10.57,10.57,0,0,1,2.35,5.14,7.94,7.94,0,0,1-1.55,5.8A12.38,12.38,0,0,1,27.6,221.5a11.52,11.52,0,0,1-6.24-2.76,13.13,13.13,0,0,1-3.75-5.84,17,17,0,0,1,.78-13.36c2.3-4.34,6.16-7.11,9.85-9a52.77,52.77,0,0,1,11.48-4.13c3.81-1,7.88-1.52,11.24-2.18s7-1.47,10.37-2.39c13.61-3.63,26.38-9.45,36.76-17.46s18.05-18.34,22-29.46a50.23,50.23,0,0,0,3-17c0-1.42-.08-2.83-.22-4.23l-.23-2-.17-1.17-.22-1.23c-.59-3.29-1.2-6.54-2-9.69-2.9-12.73-7.82-23.72-17.33-32.1S79.89,52.7,67.18,44c-3.15-2.13-6.34-4.48-9.34-6.87A53.48,53.48,0,0,1,49.24,29a29.39,29.39,0,0,1-5.83-10.57C42.29,14.53,42.31,10.11,44.34,6.84Z"/><path class="cls-1" d="M44.34,6.84c7.16-3.74,15-5.54,23-6.4a109.15,109.15,0,0,1,24,.56c16,1.91,32.19,7.45,45.91,17.15A98.2,98.2,0,0,1,147.13,26c1.34,1.17,3.11,2.92,4.5,4.37s2.88,3.09,4.25,4.72A81.63,81.63,0,0,1,169.26,57a74.66,74.66,0,0,1,5,25,144.54,144.54,0,0,1-1.45,24.73c-2.42,16.13-7.42,31.37-13.44,45.95l-2.33,5.43-2.27,5.16a72.76,72.76,0,0,0-3.39,9.9c-1.68,6.56-2,13.23.2,18.08a14,14,0,0,0,5,5.94,16.66,16.66,0,0,0,3.7,1.85c.6.23,1.53.46,1.93.57s1,.19,1.1.2.54.06.83.09c5.06.41,11.22-3.11,13.67-7.75a10.56,10.56,0,0,0,1.23-3.59,6.37,6.37,0,0,0,.07-1.08,6.59,6.59,0,0,0,0-.93,9.67,9.67,0,0,0-.28-1.91,7.35,7.35,0,0,0-5-5.37,8,8,0,0,0-4.43-.25,7.08,7.08,0,0,0-3.77,2,10.59,10.59,0,0,0-1.72,10c-1.45-1.4-2-3.5-2.31-5.51a10.32,10.32,0,0,1,6.3-11.25,14,14,0,0,1,19,7.19,16.61,16.61,0,0,1,1.23,3.64,18.05,18.05,0,0,1,.32,1.93,16.36,16.36,0,0,1,.13,1.8,18.88,18.88,0,0,1-1.33,7.58A24.31,24.31,0,0,1,178,207.54,26.15,26.15,0,0,1,164,212c-.67,0-1.25,0-2-.07s-1.3-.13-1.76-.19a28.47,28.47,0,0,1-3.66-.82,28.84,28.84,0,0,1-6.75-2.94,26.39,26.39,0,0,1-10.17-11,33.31,33.31,0,0,1-3.18-14A51.74,51.74,0,0,1,138,169.86a81.13,81.13,0,0,1,3.94-11.94l2.33-5.4,2.18-5.18c5.65-13.82,10.06-28.14,11.65-42.52a75.32,75.32,0,0,0-.36-21.27,89.87,89.87,0,0,0-5.66-19.66A72.17,72.17,0,0,0,142,46.3c-1-1.35-2.16-2.68-3.31-4s-2.15-2.36-3.61-3.83a81.41,81.41,0,0,0-7.77-6.95A104.3,104.3,0,0,0,89.07,13.09,162.65,162.65,0,0,0,67.25,9.36Z"/><path class="cls-2" d="M44.34,6.84c3.13,2.72,6.16,3.11,9.32,3.91l9.78,2c6.73,1.4,13.82,2.43,21,4,3.59.79,7.22,1.67,10.88,2.81A81.26,81.26,0,0,1,106.2,23.8a97.35,97.35,0,0,1,19.61,12.13c12,9.57,21.66,22.53,26.21,37.13a71,71,0,0,1-.5,44c1.59-14.45-.4-28.91-6.23-41.37a75.49,75.49,0,0,0-26.37-30.43A92.89,92.89,0,0,0,101,35.79c-6.18-2.54-12.69-4-19.63-5.8a213.61,213.61,0,0,1-21.15-6.22A34.2,34.2,0,0,1,49.79,18a18.34,18.34,0,0,1-4.22-4.9A9,9,0,0,1,44.34,6.84Z"/><path class="cls-2" d="M59,201.62c6.9-.9,13.64-1.6,20.25-2.63a114.87,114.87,0,0,0,19-4.13,43.67,43.67,0,0,0,4.23-1.66c1.58-.72,2.89-1.39,4.35-2.1a79.76,79.76,0,0,0,8.12-4.64,66.4,66.4,0,0,0,7.47-5.83c2.41-2.21,4.76-4.66,7.35-7.17a32.43,32.43,0,0,1-9.79,19.18,40.29,40.29,0,0,1-9,6.42,53.18,53.18,0,0,1-4.86,2.3,41.5,41.5,0,0,1-5.35,1.84,69.83,69.83,0,0,1-21.26,2A84.75,84.75,0,0,1,59,201.62Z"/></g></g></svg>