<svg xmlns="http://www.w3.org/2000/svg" viewBox="0 0 282.64 233.09"><defs><style>.cls-1{fill:#ff9800;}.cls-2{fill:#e65100;}.cls-3{fill:#fff;}</style></defs><title>socials-icon</title><g id="Livello_2" data-name="Livello 2"><g id="BACKGROUND_1" data-name="BACKGROUND 1"><path class="cls-1" d="M239.73,6c-60-25.32-98.6,38-98.6,38s-39.36-62.84-99-36.83S-10,126.9,41.12,163.68c33.64,24.18,101.09,69.41,101.09,69.41s66.93-46,100.28-70.57C293.23,125.16,299.71,31.31,239.73,6Z"/><path class="cls-2" d="M110.73,101.88H78.94a4.69,4.69,0,0,0-4.7,4.7v58.9a4.69,4.69,0,0,0,4.7,4.71h31.78a4.68,4.68,0,0,0,4.7-4.7V106.57A4.69,4.69,0,0,0,110.73,101.88Z"/><path class="cls-3" d="M210.46,105.12V97.49a6,6,0,0,0-6-6H159.79c10.14-14.93,4.85-27,2-32.26-1.89-3.46-5.76-8-10.95-8h-.34c-4.84,0-10.79,3.63-11.33,8.44-.4,3.59,2.82,11.41,1,17.83-1.19,4.14-4.9,7.69-7.13,9.27s-12.8,8.47-12.79,12.6v6.47a11.62,11.62,0,0,0,0,2.3V162a7.93,7.93,0,0,0,7.93,7.93h60.48v-.07H195c3.3,0,6.43-.13,8.55-5.06a29.36,29.36,0,0,0,2.38-8.55c0-3.3-7-6-10.35-6,3.3,0,8.68-2.67,10.35-6a35.75,35.75,0,0,0,2.56-7.62c0-3.31-4.21-6-7.5-6,3.29,0,9.43-2.68,9.44-6v-7.63c0-3.29-5.25-6-8.54-6C205.21,111.09,210.46,108.43,210.46,105.12Z"/><circle class="cls-3" cx="101.42" cy="155.07" r="5.68"/></g></g></svg>