<svg xmlns="http://www.w3.org/2000/svg" viewBox="0 0 134 93.74"><defs><style>.cls-1{fill:#e65100;}.cls-2{fill:#ff9800;}</style></defs><title>web-icon</title><g id="Livello_2" data-name="Livello 2"><g id="OBJECTS"><path class="cls-1" d="M88.62,81.74a9.23,9.23,0,0,1-7.67,4.12H53.05a9.23,9.23,0,0,1-7.67-4.12H0a12,12,0,0,0,12,12H122a12,12,0,0,0,12-12Z"/><path class="cls-2" d="M61.17,16.81A22.38,22.38,0,0,0,47,28.41H57.78A35.8,35.8,0,0,1,61.17,16.81Z"/><path class="cls-2" d="M57.09,38.32c0-2.08.09-4.15.26-6.18H45.59a22.33,22.33,0,0,0,0,12.37H57.35C57.17,42.48,57.09,40.4,57.09,38.32Z"/><path class="cls-2" d="M47,48.24a22.38,22.38,0,0,0,14.13,11.6,35.8,35.8,0,0,1-3.4-11.59Z"/><path class="cls-2" d="M70.92,21.84C69.59,17.83,68,16,67,16s-2.59,1.79-3.92,5.8a40.7,40.7,0,0,0-1.54,6.57H72.46A40.73,40.73,0,0,0,70.92,21.84Z"/><path class="cls-2" d="M87,28.41A22.38,22.38,0,0,0,72.83,16.81a35.81,35.81,0,0,1,3.4,11.59Z"/><path class="cls-2" d="M60.81,38.32c0,2.12.09,4.2.27,6.18H72.91c.18-2,.27-4.06.27-6.18s-.09-4.2-.27-6.18H61.09C60.91,34.13,60.81,36.2,60.81,38.32Z"/><path class="cls-2" d="M76.65,32.14c.17,2,.26,4.11.26,6.18s-.09,4.16-.26,6.18H88.41a22.32,22.32,0,0,0,0-12.37Z"/><path class="cls-2" d="M63.08,54.81c1.34,4,2.93,5.8,3.92,5.8s2.59-1.79,3.92-5.8a40.76,40.76,0,0,0,1.54-6.57H61.54A40.82,40.82,0,0,0,63.08,54.81Z"/><path class="cls-2" d="M119.67,12a12,12,0,0,0-12-12H26.33a12,12,0,0,0-12,12V76.65H119.67ZM91.56,46.88a1.74,1.74,0,0,1-.08.23,26,26,0,0,1-49,0,1.89,1.89,0,0,1-.08-.23,26,26,0,0,1,0-17.11,1.7,1.7,0,0,1,.08-.23,26,26,0,0,1,49,0,1.74,1.74,0,0,1,.08.23,26,26,0,0,1,0,17.11Z"/><path class="cls-2" d="M72.83,59.83A22.38,22.38,0,0,0,87,48.24H76.22A35.81,35.81,0,0,1,72.83,59.83Z"/></g></g></svg>